<svg width="101" height="101" viewBox="0 0 101 101" fill="none" xmlns="http://www.w3.org/2000/svg">
<path d="M42.3427 100.5C30.6362 100.5 18.9297 100.5 7.22319 100.5C4.42242 100.5 3.20206 99.3184 3.20525 96.5287C3.21162 89.6852 3.09373 82.8352 3.31359 75.998C3.51114 69.8645 6.85357 65.5813 12.3786 63.2343C18.6684 60.5656 25.0984 58.225 31.4838 55.792C32.4014 55.4417 32.8857 55.0086 32.6946 54.0055C32.6786 53.929 32.6818 53.8463 32.6946 53.7666C32.9877 51.6298 32.4078 50.0248 30.6235 48.5312C28.2242 46.5218 26.9911 43.6493 26.443 40.5508C26.3219 39.8725 26.0861 39.5349 25.366 39.4011C20.0927 38.4076 17.824 32.9811 20.7555 28.5164C21.0358 28.0896 21.1346 27.4878 21.1569 26.9623C21.2812 24.0262 21.1155 21.055 21.4915 18.1539C22.6609 9.14477 30.3239 1.74706 39.3508 0.664317C50.4455 -0.666824 60.3549 6.19906 62.6268 17.0775C63.229 19.9563 62.9964 23.0135 63.0856 25.991C63.1174 27.0356 63.2513 27.9368 63.8471 28.8921C66.4503 33.0798 63.9555 38.5318 59.0931 39.3725C58.201 39.5253 57.9365 39.9553 57.8027 40.7227C57.1877 44.2735 55.362 47.1332 52.7588 49.5694C52.3573 49.9452 52.0514 50.6108 52.0259 51.1585C51.959 52.5342 51.6053 54.238 52.2585 55.2124C52.8766 56.1391 54.6259 56.3143 55.8813 56.8079C57.2515 57.3461 58.6471 57.8206 59.9885 58.4161C60.7532 58.7568 61.2216 58.6868 61.8334 58.0467C64.6469 55.0787 68.0945 53.1966 72.0933 52.3272C72.3259 52.2763 72.5649 52.2508 72.8007 52.2317C73.696 52.1584 74.3014 52.582 74.4416 53.4386C74.5786 54.2634 74.0624 54.7857 73.3009 55.0277C72.6222 55.2443 71.9212 55.3939 71.2394 55.6073C63.4679 58.0499 58.4591 65.3648 58.988 73.479C59.5329 81.8416 66.4057 88.7553 74.7316 89.5705C85.2783 90.6023 94.6747 81.9276 93.8303 70.6575C93.2982 63.5528 87.9993 57.2951 80.8493 55.3717C80.5051 55.2793 80.1547 55.1997 79.8105 55.1105C78.912 54.8749 78.2238 54.394 78.4277 53.3686C78.6475 52.2731 79.5588 51.9769 80.4637 52.2954C82.7356 53.0979 85.1763 53.703 87.1677 54.98C94.27 59.5339 97.5838 66.2278 96.5992 74.584C95.5891 83.1473 90.6376 88.8412 82.4615 91.65C81.6968 91.9143 81.375 92.2169 81.4292 93.0544C81.5088 94.3219 81.4579 95.5989 81.4483 96.8727C81.426 99.1847 80.1324 100.49 77.8159 100.49C68.9357 100.5 60.0554 100.494 51.1783 100.494C48.2374 100.5 45.29 100.5 42.3427 100.5ZM25.6847 61.1835C25.1557 61.3745 24.7415 61.5146 24.3369 61.6707C20.9657 62.9795 17.6106 64.3266 14.2235 65.5909C9.30385 67.4252 6.1972 71.6288 6.1494 76.861C6.08886 83.3861 6.14303 89.9113 6.11117 96.4364C6.10798 97.309 6.3597 97.6338 7.26142 97.6179C10.1259 97.5733 12.9936 97.6051 15.8581 97.5956C16.1194 97.5956 16.3838 97.5223 16.7152 97.4746C16.7152 96.9746 16.7152 96.5415 16.7152 96.1052C16.7152 91.1309 16.712 86.1599 16.7184 81.1856C16.7184 80.7493 16.6164 80.2047 16.8299 79.9054C17.1804 79.415 17.7603 78.7749 18.2351 78.7781C18.713 78.7844 19.2611 79.4468 19.6243 79.9341C19.8219 80.1984 19.7231 80.7015 19.7231 81.0964C19.7263 86.1503 19.7263 91.201 19.7295 96.2549C19.7295 96.6752 19.7677 97.0956 19.79 97.5478C24.5217 97.5478 29.1259 97.5478 33.7747 97.5478C33.8671 97.2166 33.9818 96.9236 34.0328 96.6179C35.1671 89.9622 36.2154 83.2906 37.474 76.6572C37.8086 74.8929 37.1172 73.8102 36.123 72.6446C35.6292 72.9281 35.199 73.2242 34.7306 73.4312C33.4879 73.9821 32.1497 73.5936 31.3786 72.4567C31.0918 72.0332 30.8624 71.5619 30.633 71.1033C29.0048 67.8392 27.3766 64.5718 25.6847 61.1835ZM29.094 26.3668C29.094 29.994 29.0877 33.6085 29.0972 37.2261C29.1163 44.7353 34.4916 50.2605 42.005 50.5025C48.8523 50.7254 54.798 45.3594 55.1485 38.519C55.3014 35.5415 55.0274 32.5384 55.276 29.5736C55.5309 26.5101 54.9191 23.9656 52.37 22.0613C52.0259 21.8033 51.7296 21.453 51.4842 21.0964C50.984 20.3639 50.522 20.4563 49.8114 20.8862C45.5832 23.4498 41.0395 25.1885 36.1135 25.7936C33.8321 26.0738 31.5315 26.1757 29.094 26.3668ZM60.1446 25.7808C60.1446 23.8797 60.1797 22.0931 60.1287 20.3098C60.1032 19.4436 59.9662 18.5678 59.7878 17.7144C57.2292 5.48572 43.2986 -0.513966 32.6977 6.10671C25.1048 10.8517 23.381 18.3863 24.3177 25.9942C25.0187 25.6821 26.0065 25.5675 26.2582 25.0739C27.0197 23.5739 28.1732 23.2491 29.6835 23.2491C31.5061 23.2491 33.3446 23.2109 35.1512 22.9912C40.2015 22.3766 44.828 20.5582 49.1455 17.8959C50.6335 16.9788 51.7774 17.173 52.9945 18.4309C54.2117 19.6888 55.4384 20.9435 56.5568 22.2842C57.3152 23.195 57.8983 24.2554 58.5578 25.249C58.4846 25.3095 58.4113 25.3732 58.338 25.4337C58.8828 25.5388 59.4245 25.6439 60.1446 25.7808ZM47.718 97.5319C47.6766 97.1211 47.6639 96.774 47.6065 96.43C47.2942 94.548 46.9692 92.6691 46.657 90.7902C46.4531 89.5673 46.829 88.8126 47.7307 88.6024C48.556 88.4113 49.2506 89.0323 49.5374 90.2297C49.5852 90.424 49.6139 90.6182 49.6457 90.8157C49.9675 92.7359 50.3212 94.6499 50.5857 96.5797C50.694 97.3727 50.9967 97.6274 51.8029 97.621C55.8654 97.5828 59.9248 97.6051 63.9873 97.5987C64.29 97.5987 64.5895 97.5351 64.9591 97.4905C64.9591 94.9747 64.9273 92.5512 64.9783 90.1278C64.9942 89.3635 64.7265 88.889 64.1403 88.4336C58.6502 84.16 55.9005 78.5297 56.1171 71.5746C56.184 69.3868 56.7162 67.2118 57.0189 65.1546C56.901 65.3775 56.7002 65.7533 56.5059 66.1322C55.4862 68.1544 54.5049 70.1989 53.4374 72.1988C52.6727 73.6287 51.2038 74.0586 49.7827 73.3612C49.359 73.1542 48.967 72.8867 48.5305 72.6255C47.5013 73.8357 46.7143 74.9948 47.1986 76.7877C47.7339 78.7717 47.9283 80.8512 48.2246 82.8957C48.3553 83.8033 47.9697 84.5103 47.0138 84.6345C46.0516 84.7618 45.5449 84.1249 45.3761 83.2555C45.0893 81.7747 44.8822 80.278 44.6018 78.794C43.9741 75.4725 44.8726 76.1827 41.39 76.0712C40.6731 76.0489 40.4469 76.3292 40.3353 77.0075C39.5929 81.5964 38.8027 86.1758 38.0316 90.7615C37.6556 92.9875 37.2797 95.2103 36.8877 97.5287C40.5679 97.5319 44.092 97.5319 47.718 97.5319ZM42.3268 64.0018C44.2131 61.6802 45.8668 59.3714 47.8104 57.3365C49.3494 55.722 48.9129 53.9768 48.9384 52.012C44.4744 53.9736 40.1314 53.824 35.5144 52.0979C35.6674 53.6074 35.3774 55.1264 35.9956 56.0245C37.8819 58.7664 40.1155 61.2662 42.3268 64.0018ZM56.2159 60.1166C54.5495 59.4606 53.0168 58.8301 51.4555 58.2728C51.2198 58.1868 50.745 58.3619 50.5698 58.5721C48.5401 61.0179 46.5486 63.4922 44.4616 66.059C46.641 67.6035 48.7599 69.1066 50.9521 70.6607C52.7237 67.1131 54.422 63.7056 56.2159 60.1166ZM40.2015 66.059C38.124 63.505 36.1549 61.0624 34.1443 58.6549C33.9436 58.4161 33.437 58.1932 33.1821 58.2791C31.624 58.8269 30.0945 59.4638 28.4472 60.1134C30.2283 63.6833 31.9426 67.1194 33.7078 70.6575C35.8936 69.1162 37.9902 67.629 40.2015 66.059ZM67.9989 97.5987C71.3477 97.5987 74.5627 97.6147 77.7777 97.5701C78.039 97.5669 78.5073 97.1561 78.5201 96.9141C78.5902 95.4969 78.5551 94.0703 78.5551 92.5321C74.859 92.8378 71.4146 92.2487 68.0021 90.8443C67.9989 93.1499 67.9989 95.2836 67.9989 97.5987ZM26.1276 28.6374C23.8111 28.8794 22.2498 30.6946 22.3868 32.8442C22.5111 34.825 24.2094 36.4586 26.1276 36.3917C26.1276 33.8346 26.1276 31.271 26.1276 28.6374ZM45.9273 70.7212C44.9268 70.011 43.8721 69.2372 42.7792 68.5175C42.5753 68.3837 42.1452 68.3519 41.954 68.4761C40.8292 69.2117 39.7459 70.0078 38.6657 70.7721C39.7905 72.9949 39.8606 73.1 40.9726 73.0714C42.8971 73.0204 45.204 73.8006 45.9273 70.7212ZM58.2551 36.4618C60.5429 36.223 62.0022 34.5033 61.9035 32.3028C61.8111 30.2074 60.288 28.6374 58.2551 28.5641C58.2551 31.1723 58.2551 33.7772 58.2551 36.4618Z" fill="#71665A"/>
<path d="M76.4267 87.4145C68.0371 87.4209 61.228 80.6823 61.1483 72.2879C61.0687 63.9698 68.0307 57.0052 76.4267 57.0084C84.8258 57.0084 91.721 63.9125 91.6891 72.2879C91.654 80.6346 84.8226 87.4081 76.4267 87.4145ZM64.1275 72.2242C64.1148 78.9372 69.6207 84.4847 76.3247 84.5134C83.1243 84.542 88.6717 79.0773 88.7226 72.3006C88.7768 65.5526 83.239 59.9732 76.4585 59.9478C69.6908 59.9191 64.1403 65.4443 64.1275 72.2242Z" fill="#71665A"/>
<path d="M75.6428 73.947C77.5355 71.8898 79.1446 70.1319 80.7664 68.3836C80.9799 68.1512 81.2284 67.804 81.4801 67.7849C82.0951 67.7404 82.9458 67.6385 83.2772 67.976C83.6086 68.3104 83.7074 69.4282 83.4174 69.7307C81.1073 72.1318 78.7112 74.4597 76.245 76.6985C75.9455 76.9692 74.8813 76.8068 74.4703 76.4724C73.2722 75.5011 72.2143 74.3515 71.1214 73.256C70.5001 72.6318 70.4077 71.8866 71.0035 71.2306C71.6376 70.5332 72.4661 70.5428 73.1288 71.1637C73.9063 71.893 74.569 72.7433 75.6428 73.947Z" fill="#71665A"/>
</svg>
