<svg width="101" height="101" viewBox="0 0 101 101" fill="none" xmlns="http://www.w3.org/2000/svg">
<path d="M34.1641 89.2793C35.6175 92.3473 35.6073 92.3337 32.9043 94.0204C29.7769 95.9753 26.6767 97.9708 23.5493 99.9222C22.1095 100.822 21.6817 100.716 20.775 99.2842C14.6968 89.69 8.6355 80.0889 2.55046 70.4981C1.91547 69.4969 2.09883 68.7638 3.07338 68.1496C6.80183 65.7977 10.5235 63.4322 14.2519 61.0837C15.1789 60.5 15.9294 60.7002 16.5067 61.6403C17.2164 62.7942 17.9838 63.9175 18.6663 65.0884C19.0466 65.74 19.4168 65.9063 20.1842 65.6348C25.2132 63.8496 30.2693 62.1493 35.3017 60.3744C38.0929 59.3902 40.8366 59.4004 43.6415 60.3506C51.1391 62.8926 58.6537 65.3938 66.1683 67.8849C68.165 68.5466 70.1175 69.2322 71.2652 71.2583C74.7051 69.4765 78.0464 67.7491 81.3877 66.0149C83.87 64.7286 86.3318 63.3983 88.8378 62.1629C91.3812 60.9072 93.86 61.0396 96.0876 62.8926C98.0027 64.4877 98.7226 67.1722 97.9552 69.463C97.3915 71.1531 96.271 72.3681 94.7429 73.2504C84.7936 78.9859 74.8409 84.7215 64.9018 90.4739C62.2022 92.0385 59.3397 92.3269 56.3039 91.8654C49.6009 90.8506 42.891 89.8902 36.1778 88.9569C35.5767 88.8687 34.9282 89.1436 34.1641 89.2793ZM32.5818 87.0394C33.7567 86.6932 34.7074 86.0959 35.5632 86.2079C42.0319 87.0496 48.4871 88.0032 54.9355 88.9807C57.9882 89.4422 60.9288 89.7511 63.8083 88.0508C71.6557 83.4216 79.5744 78.9147 87.466 74.3602C89.449 73.2165 91.4389 72.0898 93.4118 70.9291C95.0825 69.9449 95.8533 68.4448 95.5069 66.955C94.8957 64.3282 92.4033 63.31 89.8022 64.654C84.3454 67.4742 78.9055 70.3352 73.4317 73.1215C72.5115 73.5898 71.958 74.0514 71.9885 75.1781C72.0055 75.8161 71.7203 76.5119 71.4113 77.0956C69.8594 80.0143 66.8305 81.2801 63.6522 80.2654C59.8184 79.047 56.0187 77.7269 52.2053 76.4508C50.2393 75.7924 48.2664 75.151 46.3003 74.4824C45.4649 74.2007 44.8028 73.6984 45.1322 72.7142C45.4446 71.7775 46.178 71.5671 47.0847 71.9472C47.2409 72.0117 47.4106 72.0389 47.5702 72.0932C53.112 73.9462 58.6503 75.806 64.1921 77.6556C66.4094 78.3954 68.4978 77.452 69.2584 75.3716C69.9239 73.5559 68.8204 71.6384 66.62 70.8951C58.4738 68.153 50.3241 65.421 42.1677 62.7025C40.3443 62.095 38.5072 62.1188 36.6803 62.75C33.7193 63.775 30.7481 64.7761 27.7871 65.7977C25.4474 66.6054 23.1146 67.4335 20.6969 68.2819C24.7446 74.6623 28.7039 80.9136 32.5818 87.0394ZM32.1403 91.3326C26.3337 82.1625 20.595 73.0977 14.7783 63.9107C11.5727 65.9402 8.48949 67.895 5.33151 69.8974C11.1789 79.1285 16.9175 88.1899 22.7004 97.3192C25.9093 95.2795 28.9722 93.3417 32.1403 91.3326Z" fill="#71665A"/>
<path d="M45.5804 42.6486C43.2849 41.6882 42.7518 39.7503 42.6397 37.5715C42.5752 36.3294 42.0998 35.2875 41.0947 34.4968C38.694 32.6064 38.1846 30.2545 39.4444 27.492C40.0217 26.2227 40.0081 24.9466 39.4342 23.6774C38.2118 20.9725 38.6532 18.6376 41.02 16.771C42.1813 15.8513 42.5752 14.6295 42.6839 13.2177C42.9114 10.2447 43.8146 9.01957 46.6704 8.20506C48.1815 7.77745 49.2239 6.9833 49.9133 5.6156C51.0814 3.30104 52.915 2.23199 55.5331 2.73767C57.2615 3.07026 58.7692 2.67319 60.1886 1.6279C62.2362 0.117661 64.389 0.127843 66.423 1.63469C67.8899 2.7207 69.4486 3.05329 71.2075 2.72749C73.7271 2.25914 75.4962 3.31801 76.627 5.52058C77.3469 6.92561 78.386 7.77066 79.9446 8.21185C82.7935 9.01957 83.7104 10.2583 83.9141 13.2347C84.0092 14.6159 84.3929 15.7902 85.5101 16.6828C87.8327 18.5392 88.4507 20.8334 87.2011 23.5688C86.5356 25.0247 86.6646 26.4671 87.2826 27.8789C88.3828 30.3937 87.8565 32.5182 85.7648 34.2388C84.5321 35.2536 83.9718 36.5059 83.9039 38.0942C83.8224 40.0592 83.1535 41.7561 81.0414 42.6181C82.4777 45.1431 83.853 47.5629 85.2282 49.986C85.8361 51.0551 86.522 52.0868 87.0076 53.2067C87.2249 53.7056 87.2419 54.5201 86.9634 54.9342C86.7393 55.2668 85.9074 55.3821 85.3946 55.2939C83.3606 54.9545 81.347 54.4998 79.262 54.0721C78.6304 55.9557 78.1109 57.7408 77.4182 59.4581C77.1499 60.1267 76.5387 61.0362 75.992 61.1041C75.4759 61.1652 74.6575 60.3778 74.2942 59.7703C72.2398 56.312 70.2839 52.7927 68.2906 49.3005C68.1922 49.124 68.0563 48.9713 67.822 48.6489C64.8678 51.1942 61.8558 51.3843 58.7963 48.5912C57.4279 50.977 56.1477 53.2033 54.8743 55.4297C53.9711 57.0112 53.1188 58.6266 52.1408 60.1606C51.8386 60.6323 51.1357 61.2229 50.7214 61.1482C50.2019 61.0566 49.5873 60.4219 49.3733 59.8823C48.6501 58.0361 48.083 56.1288 47.4039 54.0891C45.4446 54.4794 43.5192 54.924 41.5735 55.2226C40.9419 55.3211 39.8791 55.2464 39.6821 54.8833C39.4003 54.3742 39.5361 53.4138 39.8485 52.8368C41.5158 49.7417 43.2951 46.7076 45.0337 43.6532C45.2069 43.3647 45.3563 43.0695 45.5804 42.6486ZM70.1617 45.6929C71.9851 45.866 73.4521 46.2596 74.1787 44.6001C75.2008 42.2719 77.0786 41.0196 79.4115 40.351C80.6475 39.9981 81.2519 39.2549 81.2485 37.972C81.2417 35.5624 82.2468 33.6483 84.1111 32.1449C85.1128 31.3405 85.449 30.3394 84.8887 29.1074C83.8292 26.7759 83.8292 24.4342 84.8853 22.1026C85.4422 20.8707 85.1264 19.8865 84.1144 19.0652C82.3046 17.5923 81.2451 15.7393 81.2723 13.3636C81.2893 11.8398 80.4947 11.0015 79.0821 10.6995C76.8307 10.221 75.3027 8.86685 74.3349 6.84076C73.7067 5.52397 72.688 5.05902 71.3196 5.39161C69.0411 5.9448 67.0376 5.35767 65.2176 4.00016C63.9136 3.02614 62.6708 3.0465 61.3737 4.01373C59.5536 5.37125 57.5467 5.93122 55.2682 5.38822C53.9779 5.07938 52.9456 5.45609 52.3344 6.75252C51.3327 8.86685 49.7299 10.2447 47.3869 10.747C46.1475 11.0117 45.3834 11.7618 45.38 13.1396C45.3732 15.6375 44.3206 17.6228 42.3817 19.1738C41.3901 19.9679 41.2 20.9657 41.7263 22.123C42.7892 24.4613 42.7756 26.803 41.7059 29.1346C41.166 30.3156 41.4614 31.293 42.4224 32.0702C44.3206 33.6008 45.3631 35.542 45.3665 37.9958C45.3665 39.3601 46.0999 40.0456 47.3427 40.4087C49.4956 41.0366 51.2987 42.1464 52.2495 44.298C52.8335 45.6182 53.8149 46.073 55.2275 45.8184C57.4992 45.4044 59.6181 45.7574 61.4687 47.2404C62.7047 48.2314 63.9136 48.1737 65.1632 47.2337C66.7829 46.0153 68.5691 45.3331 70.1617 45.6929ZM78.3282 43.2765C77.6355 44.2743 77.0379 45.0175 76.5693 45.832C75.4759 47.7427 73.9342 48.7643 71.6761 48.5437C71.4961 48.5267 71.306 48.5844 70.9698 48.6251C72.5013 51.296 73.9546 53.8312 75.571 56.6548C76.0939 55.0937 76.5217 53.8685 76.9156 52.6332C77.279 51.4861 77.9106 50.9702 79.1975 51.3198C80.5015 51.6727 81.8529 51.8492 83.3878 52.1377C81.6967 49.1749 80.1279 46.4259 78.3282 43.2765ZM55.8217 48.4113C52.589 49.0629 50.8471 47.5018 49.5737 45.0752C49.2817 44.5186 48.7961 44.0639 48.2698 43.3953C46.5414 46.4293 44.9692 49.1885 43.2815 52.1513C44.8503 51.8458 46.1305 51.5981 47.4107 51.3503C48.8878 51.0652 49.2511 51.2587 49.7639 52.6943C50.1985 53.9126 50.5924 55.148 51.0984 56.6548C52.7181 53.8346 54.1782 51.2824 55.8217 48.4113Z" fill="#71665A"/>
<path d="M47.6823 25.5577C47.6959 16.8628 54.6672 9.93943 63.4178 9.93604C71.9817 9.93264 78.9632 16.9985 78.9326 25.6459C78.9055 34.3544 71.9375 41.2607 63.2005 41.2404C54.5891 41.22 47.6687 34.2254 47.6823 25.5577ZM63.2956 12.6443C56.1239 12.6511 50.3411 18.4035 50.3275 25.5441C50.3139 32.722 56.1816 38.6305 63.3159 38.6204C70.457 38.6102 76.2942 32.7186 76.2976 25.5237C76.301 18.4273 70.4604 12.6409 63.2956 12.6443Z" fill="#71665A"/>
<path d="M56.7284 33.6008C56.9898 32.1415 57.1698 30.6652 57.5433 29.233C57.7403 28.4762 57.5433 28.0554 57.017 27.5938C56.0323 26.7216 55.0407 25.8528 54.1579 24.8822C53.8081 24.4987 53.4923 23.7826 53.6213 23.355C53.747 22.9308 54.4125 22.493 54.9083 22.3878C56.2292 22.1095 57.6011 22.0687 58.9254 21.7972C59.4109 21.6988 59.9814 21.3017 60.2225 20.8775C60.8677 19.7406 61.2921 18.4747 61.9407 17.3412C62.2158 16.8627 62.8372 16.2959 63.3024 16.2959C63.7676 16.2959 64.3856 16.8627 64.6641 17.3412C65.316 18.4747 65.7473 19.7338 66.3958 20.8707C66.6369 21.295 67.2006 21.6988 67.6794 21.7972C69.0445 22.0721 70.4571 22.123 71.8255 22.3979C72.2805 22.4896 72.8748 22.9206 73.0004 23.321C73.1261 23.7283 72.8884 24.4172 72.5692 24.7634C71.5912 25.8155 70.4605 26.7284 69.4689 27.7737C69.1803 28.0757 69.0003 28.6561 69.0547 29.0735C69.238 30.4548 69.6115 31.8123 69.7881 33.1936C69.8492 33.6721 69.6998 34.4187 69.3705 34.6393C68.9833 34.9041 68.2193 34.9176 67.7609 34.7174C66.5249 34.171 65.3432 33.4922 64.1853 32.7897C63.5706 32.4164 63.0986 32.3825 62.467 32.7694C61.2378 33.516 59.9678 34.2049 58.6673 34.8226C57.6554 35.2977 56.7352 34.6665 56.7284 33.6008ZM59.815 31.0385C61.1767 30.4412 62.2463 29.603 63.316 29.6063C64.3822 29.6097 65.4485 30.4514 66.552 30.9435C66.4264 29.7455 65.9476 28.466 66.2804 27.4547C66.62 26.4196 67.7575 25.6458 68.8204 24.4546C65.7031 24.9161 64.0427 23.5688 63.2888 20.7112C62.6402 23.6978 60.776 24.8109 57.8354 24.743C60.5247 26.2736 60.9933 28.3676 59.815 31.0385Z" fill="#71665A"/>
</svg>
