<svg width="101" height="100" viewBox="0 0 101 100" fill="none" xmlns="http://www.w3.org/2000/svg">
<path d="M64.6865 26.6042C63.3111 27.6873 62.0171 28.7058 60.6417 29.7889C60.8692 29.9926 61.0323 30.1725 61.2224 30.3083C69.5634 36.2328 74.4199 44.2589 75.6935 54.4104C77.4086 68.0622 69.9438 81.9618 57.6904 88.1953C51.7811 91.2 45.5559 92.4018 38.9809 91.9028C38.4036 91.8586 37.704 91.5904 37.3372 91.1796C37.0723 90.8842 37.0485 89.9743 37.3032 89.7061C37.6972 89.2919 38.4409 88.949 39.0047 88.9931C42.5911 89.2817 46.1367 89.112 49.6008 88.124C61.973 84.5897 69.6246 76.55 72.406 63.9744C73.2483 60.1651 73.1736 56.3116 72.423 52.4819C72.3687 52.2001 72.2532 51.9319 72.0664 51.3513C70.1408 52.7705 68.2559 53.9928 66.5714 55.4425C64.099 57.578 64.2382 60.491 64.7069 63.3531C65.7767 69.8921 63.1549 75.0833 57.1674 78.0574C53.075 80.0911 49.6585 78.509 48.9894 74.0036C48.5547 71.0872 48.6532 68.0893 48.4902 65.1322C48.3544 62.6809 48.2695 60.2228 47.991 57.7885C47.8178 56.2743 47.4306 56.2234 45.9193 56.3965C43.0631 56.719 40.1934 57.1468 37.3304 57.1163C32.5418 57.0653 30.0388 53.0693 29.6313 49.1072C29.2441 45.3216 31.0067 42.4052 33.598 39.8724C33.958 39.5193 34.3384 39.1866 34.8342 38.7316C33.4214 38.3989 32.0833 38.2461 30.8709 37.7674C28.4392 36.81 26.0449 35.7337 23.7016 34.5794C22.9918 34.2297 22.5808 34.1041 21.9424 34.6643C18.5088 37.669 15.7987 41.2135 13.8833 45.3488C13.727 45.6849 13.6387 46.2213 13.8018 46.5065C15.1195 48.8763 16.4474 51.2427 17.8975 53.5276C18.3119 54.1795 19.0794 54.6955 19.796 55.0486C20.8896 55.5919 22.1326 55.8363 23.2159 56.3931C25.3555 57.4897 26.1706 59.3435 25.3419 61.6114C24.4012 64.1917 23.2397 66.6939 22.1156 69.2029C21.528 70.5202 21.4295 71.6338 22.2242 73.0123C23.9121 75.9389 24.5438 79.1642 24.1838 82.5696C24.1431 82.96 24.4182 83.5847 24.7408 83.7748C26.4457 84.7934 28.1981 85.744 29.9641 86.6539C31.1018 87.2379 31.5535 87.9339 31.1086 88.8064C30.5958 89.8215 29.7841 89.8148 28.8468 89.3904C17.3575 84.1585 10.3173 75.3923 8.55807 62.8608C6.86678 50.8149 10.881 40.6703 19.9284 32.5287C20.0201 32.4439 20.0915 32.3352 20.1186 32.3047C18.1047 30.1691 15.8768 28.2169 14.155 25.8913C11.5467 22.3535 9.28485 18.5646 6.88376 14.8741C6.30981 13.9913 6.45245 13.1901 7.26073 12.5043C14.1482 6.67144 21.6605 2.06425 30.7147 0.4244C39.0557 -1.08304 46.1774 1.51084 52.5045 6.82761C53.2245 7.43195 53.4452 8.15172 52.8271 8.93599C52.1615 9.78477 51.377 9.6931 50.6094 9.06161C47.7363 6.6952 44.6356 4.70905 40.9983 3.75163C39.3817 3.32724 37.7074 3.12353 36.0568 2.82136C35.9991 2.94019 35.9414 3.05563 35.8836 3.17445C36.5289 4.09114 37.164 5.01801 37.8262 5.92451C41.1137 10.4027 44.3876 14.891 47.7261 19.3319C48.1064 19.8377 48.8196 20.2486 49.4479 20.381C53.0513 21.1551 56.675 21.8307 60.2919 22.5369C60.6485 22.6048 61.0153 22.6319 61.8134 22.7304C59.9285 20.0449 58.2304 17.6784 56.6003 15.2679C56.2742 14.7858 55.9448 14.0864 56.0535 13.5771C56.3218 12.304 57.8568 12.0969 58.6957 13.2546C60.4651 15.6889 62.2413 18.1266 63.7933 20.7001C64.836 22.4282 65.9329 23.956 67.6208 25.1443C69.2034 26.2579 70.5551 27.7043 72.0087 29.008C72.2804 29.2524 72.5521 29.4969 73.0207 29.9179C72.8883 28.9095 72.8 28.1694 72.6947 27.4293C71.4347 18.6359 75.2113 12.3345 82.4553 7.77146C85.6681 5.74796 89.1525 4.33559 92.783 3.24575C94.0362 2.86889 94.8785 3.10995 95.5169 4.31182C98.0776 9.11933 99.881 14.1679 100.153 19.6408C100.509 26.8555 97.266 32.2707 91.4483 36.3075C88.3205 38.477 84.9107 40.049 81.3006 41.2237C81.0628 41.3018 80.8319 41.3866 80.5942 41.4681C81.304 43.8108 82.0783 46.0821 82.6828 48.3976C86.7446 63.9541 80.4346 81.6868 67.5325 91.3629C60.3191 96.7714 52.2532 99.8508 43.2601 99.9934C29.9471 100.204 18.7466 95.3149 10.0626 85.1295C3.45363 77.375 0.25444 68.2829 0.179725 58.1178C0.16614 56.0095 0.498964 53.8943 0.695942 51.7859C0.791035 50.7708 1.27329 50.034 2.4144 50.2343C3.51136 50.4245 3.76947 51.2257 3.60985 52.2511C0.417457 72.9274 13.9376 92.1812 34.532 96.2995C52.6607 99.9255 70.8608 90.1645 77.9723 73.0055C84.673 56.8345 79.6738 38.1002 65.7971 27.3953C65.4677 27.1339 65.1144 26.903 64.6865 26.6042ZM71.3498 48.4417C71.3294 48.3772 71.2887 48.221 71.2377 48.0716C68.9046 41.3323 64.6424 36.1106 58.75 32.1553C58.1014 31.7173 57.6089 31.7343 56.9297 32.1587C52.5147 34.9189 47.8449 37.1257 42.6828 38.0322C40.9032 38.3446 39.3341 38.9727 38.0334 40.1203C36.4576 41.5123 34.8206 42.9212 33.6116 44.6086C32.0358 46.8154 32.1648 49.3245 33.4791 51.7146C34.7187 53.9656 36.8108 54.485 39.1338 54.2813C41.579 54.0674 44.0107 53.6838 46.4491 53.3986C48.3136 53.1779 49.577 53.8569 50.3343 55.5681C50.6739 56.332 51.017 57.1638 51.0577 57.982C51.2275 61.367 51.2275 64.7587 51.3973 68.1437C51.4992 70.1638 51.652 72.2076 52.0596 74.1802C52.4196 75.9185 53.4554 76.3395 55.1229 75.6978C58.3527 74.4518 60.567 72.1329 61.7624 68.9245C62.0987 68.0282 62.0715 66.9486 62.0205 65.964C61.9458 64.4871 61.6741 63.017 61.5417 61.5401C61.1953 57.6731 62.6183 54.5462 65.7088 52.2443C67.502 50.9032 69.4208 49.7319 71.3498 48.4417ZM60.8862 25.7521C60.4957 25.64 60.2647 25.5518 60.0236 25.5042C56.3252 24.7845 52.6301 24.0307 48.9181 23.3924C48.2627 23.2804 47.3797 23.44 46.8465 23.8168C43.0054 26.5363 39.2255 29.3407 35.4285 32.1247C34.2161 33.0142 33.0173 33.9241 31.7301 34.885C39.8945 37.6146 51.7641 33.1908 60.8862 25.7521ZM21.2937 80.9297C21.3107 78.3392 20.7028 76.112 19.4666 74.0953C18.5258 72.5607 18.3628 71.0193 18.9537 69.3625C19.222 68.6054 19.5039 67.8517 19.8266 67.1149C20.7062 65.0982 21.6299 63.1019 22.4959 61.0818C22.9714 59.9716 22.591 59.1941 21.4397 58.8003C21.0797 58.678 20.7469 58.4438 20.3801 58.3827C17.2998 57.8768 15.4998 55.9008 14.2534 53.2119C13.7338 52.0949 13.0716 51.0458 12.3889 49.8133C8.86712 60.396 13.0104 74.1225 21.2937 80.9297ZM20.3801 28.2713C22.5197 30.3559 24.8121 31.9719 27.3117 33.3232C27.9502 33.6695 28.3985 33.6525 29.0132 33.1976C33.5708 29.8228 38.1591 26.4888 42.7507 23.1616C43.0394 22.9511 43.4333 22.8832 43.7797 22.7508C43.6371 22.5878 43.491 22.4282 43.3484 22.2653C40.6994 21.7356 38.0028 21.3656 35.415 20.6288C32.7693 19.8751 30.5517 20.1671 28.6396 22.2042C28.4392 22.4147 28.1608 22.5505 27.923 22.727C25.4404 24.5502 22.9612 26.3734 20.3801 28.2713ZM43.7593 19.3217C43.7288 19.0976 43.7424 18.9958 43.7016 18.938C39.9794 13.8352 36.2572 8.73228 32.5146 3.64638C32.3482 3.4189 31.9441 3.18124 31.6962 3.22199C29.0845 3.66335 26.5204 4.27108 24.0412 5.48314C26.8193 9.28569 29.5158 12.983 32.2328 16.6667C32.4195 16.9213 32.7422 17.1692 33.0376 17.2303C36.5934 17.9399 40.1526 18.6223 43.7593 19.3217ZM96.9365 23.1073C96.8618 23.0903 96.7701 23.0394 96.7124 23.0631C93.2619 24.4755 89.8114 25.8845 86.3677 27.3172C86.1163 27.4225 85.8277 27.6364 85.7292 27.874C84.3232 31.1673 82.9443 34.4742 81.5213 37.8727C88.188 35.9714 96.5494 30.2438 96.9365 23.1073ZM78.227 15.6617C73.6728 20.5915 75.3063 30.9941 78.7535 36.8745C80.0746 33.6967 81.3787 30.5698 82.6624 27.4361C82.7609 27.1916 82.8085 26.8453 82.7134 26.6144C81.2361 22.9647 79.7349 19.3319 78.227 15.6617ZM18.0538 26.3157C21.4126 23.8474 24.4453 21.6168 27.7328 19.2029C21.9492 18.0791 16.5493 17.03 11.1459 15.9809C11.0407 16.1167 10.9388 16.2559 10.8335 16.3917C13.2074 19.6544 15.5813 22.9137 18.0538 26.3157ZM91.3193 6.82082C87.3152 8.24678 83.8036 10.0089 80.8149 12.7012C80.5908 12.9015 80.5636 13.533 80.6893 13.8725C81.2802 15.4546 81.9493 17.0096 82.6013 18.5714C83.1956 19.9939 83.8002 21.4131 84.5066 23.0937C86.8261 17.5562 89.0201 12.3107 91.3193 6.82082ZM21.1103 6.47792C17.7753 8.60666 14.5829 10.6403 11.3939 12.6774C11.4414 12.803 11.489 12.9287 11.5365 13.0543C17.0349 14.1204 22.5333 15.1898 28.317 16.3136C25.8649 12.9626 23.5759 9.83909 21.1103 6.47792ZM87.6107 23.3313C87.8654 23.3958 87.9571 23.4536 88.0148 23.4298C90.8744 22.2653 93.7407 21.1177 96.5731 19.8955C96.8618 19.7698 97.1607 19.1519 97.0996 18.826C96.692 16.5852 96.2675 14.341 95.6867 12.141C95.3301 10.7897 94.6883 9.51316 94.06 7.90047C91.8117 13.2818 89.7163 18.2896 87.6107 23.3313Z" fill="#71665A"/>
</svg>
