<svg width="100" height="40" viewBox="0 0 100 40" fill="none" xmlns="http://www.w3.org/2000/svg">
<path d="M30.6325 13.312C33.3213 12.6729 35.7015 12.75 37.7512 13.5324C39.5584 14.1716 41.1232 15.3066 42.4346 16.9485C44.5944 20.2324 45.1123 23.8909 44.0104 27.9131C43.1729 30.7893 41.3656 33.0483 38.4344 34.3266C34.6436 35.9685 30.7647 35.671 27.4698 33.2467C25.4532 31.77 24.3622 29.9958 23.8664 28.3209C23.1501 26.1389 23.0178 23.8138 23.4697 21.3233C24.3182 17.213 26.7094 14.5462 30.6325 13.312ZM33.3102 13.5324C31.1504 13.8189 29.6186 14.976 28.715 16.9816C27.5249 20.001 27.2494 23.7697 27.8886 28.2878C28.4175 32.7067 30.6435 34.7894 34.5445 34.547C36.4729 34.4478 37.9495 33.4009 38.9854 31.4064C39.7017 29.6432 40.0984 27.6266 40.1535 25.3676C40.2747 22.8 40.0763 20.4418 39.5364 18.2819C38.6548 14.8878 36.5831 13.301 33.3102 13.5324Z" fill="white"/>
<path d="M53.8069 13.312C56.4957 12.6729 58.876 12.75 60.9256 13.5324C62.7329 14.1716 64.2976 15.3066 65.609 16.9485C67.7689 20.2324 68.2868 23.8909 67.1848 27.9131C66.3473 30.7893 64.5401 33.0483 61.6088 34.3266C57.8181 35.9685 53.9391 35.671 50.6442 33.2467C48.6276 31.77 47.5367 29.9958 47.0408 28.3209C46.3245 26.1389 46.1923 23.8138 46.6441 21.3233C47.4926 17.213 49.8839 14.5462 53.8069 13.312ZM56.4957 13.5324C54.3358 13.8189 52.8041 14.976 51.9005 16.9816C50.7104 20.001 50.4349 23.7697 51.063 28.2878C51.5919 32.7067 53.8179 34.7894 57.7189 34.547C59.6473 34.4478 61.124 33.4009 62.1598 31.4064C62.8761 29.6432 63.2728 27.6266 63.3279 25.3676C63.4491 22.8 63.2508 20.4418 62.7108 18.2819C61.8292 14.8878 59.7575 13.301 56.4957 13.5324Z" fill="white"/>
<path d="M76.9923 13.312C79.6811 12.6729 82.0614 12.75 84.111 13.5324C85.9183 14.1716 87.4831 15.3066 88.7944 16.9485C90.9543 20.2324 91.4722 23.8909 90.3702 27.9131C89.5327 30.7893 87.7255 33.0483 84.7943 34.3266C81.0035 35.9685 77.1246 35.671 73.8297 33.2467C71.8131 31.77 70.7221 29.9958 70.2262 28.3209C69.5099 26.1389 69.3777 23.8138 69.8295 21.3233C70.678 17.213 73.0693 14.5462 76.9923 13.312ZM79.6701 13.5324C77.5102 13.8189 75.9785 14.976 75.0749 16.9816C73.8848 20.001 73.6093 23.7697 74.2374 28.2878C74.7663 32.7067 76.9923 34.7894 80.8933 34.547C82.8217 34.4478 84.2984 33.4009 85.3342 31.4064C86.0505 29.6432 86.4472 27.6266 86.5023 25.3676C86.6235 22.8 86.4252 20.4418 85.8852 18.2819C85.0147 14.8878 82.943 13.301 79.6701 13.5324Z" fill="white"/>
<path d="M99.9904 24.1775C99.9684 24.0894 99.8913 24.0233 99.8031 24.0233C99.4725 24.0122 99.153 24.0673 98.9105 24.1224C98.3044 24.2547 97.7204 24.442 97.1584 24.7065C97.1253 24.7175 97.0923 24.7395 97.0592 24.7616C97.1914 24.464 97.3016 24.1555 97.4118 23.8469C97.9077 23.5604 98.1171 23.1858 98.2824 22.7119C98.4697 22.172 98.5138 21.6099 98.5469 21.059C98.5579 20.9598 98.4918 20.8716 98.3926 20.8496C98.2934 20.8275 98.1942 20.8826 98.1612 20.9708C98.062 21.2243 97.9077 21.4447 97.7424 21.6871C97.6322 21.8524 97.522 22.0287 97.4229 22.205L97.3347 22.3593C97.1033 22.767 96.8278 23.2739 97.0041 23.7698C96.8939 24.0784 96.7727 24.3869 96.6515 24.6844C96.6845 23.9461 96.5523 23.1968 96.2768 22.5246C96.2438 22.4474 96.1666 22.4034 96.0895 22.4034C96.0123 22.4034 95.9352 22.4474 95.9021 22.5246C95.4613 23.5715 95.4503 24.7726 95.8911 25.8195C95.9242 25.8966 95.9683 25.9517 96.0234 26.0068C95.7368 26.5247 95.4173 27.0316 95.0646 27.5165C95.4503 26.3815 95.4834 25.3456 95.1638 24.5081C95.1308 24.431 95.0646 24.3869 94.9875 24.3759C94.9104 24.3649 94.8332 24.4089 94.7892 24.4751C94.0288 25.7534 93.7533 27.3181 94.0288 28.7838C93.7864 29.0482 93.5439 29.3017 93.2905 29.5441C93.2684 29.5551 93.2464 29.5772 93.2243 29.6102C93.1582 29.6764 93.0921 29.7425 93.026 29.8086C92.9048 29.9188 92.7725 30.018 92.6513 30.1282C92.7064 29.9739 92.7505 29.8306 92.7946 29.6764C93.0921 28.6075 93.3896 27.3732 92.9709 26.2492C92.9268 26.139 92.8717 25.9958 92.7725 25.8856C92.7285 25.8415 92.6734 25.8195 92.6183 25.8195C92.5632 25.8195 92.5081 25.8415 92.464 25.8856C92.2216 26.1721 92.1665 26.5358 92.1114 26.8663L92.0893 26.9986C92.0232 27.4173 91.891 27.8361 91.7697 28.2438C91.5824 28.8719 91.3841 29.5331 91.3841 30.2163C91.3841 30.4037 91.4061 30.6571 91.5494 30.8334C91.5604 30.8555 91.5604 30.9106 91.5604 30.9547C91.0204 31.3293 90.4474 31.682 89.8633 31.9795C89.9184 31.8583 89.9735 31.737 90.0066 31.6379L90.0397 31.5497C90.5135 30.3596 90.6568 29.0482 90.4474 27.781C90.3813 27.3953 90.26 26.8223 89.9184 26.3594C89.8633 26.2823 89.7531 26.2603 89.665 26.2933C89.5768 26.3374 89.5328 26.4256 89.5548 26.5247C89.7091 27.208 89.4666 27.9353 89.2352 28.6405C88.9818 29.4009 88.7504 30.2163 88.9818 30.9877C89.0699 31.2852 89.2683 31.5828 89.5438 31.682C89.4226 31.9574 89.2573 32.266 88.9377 32.4093C88.6842 32.5194 88.4308 32.6186 88.1773 32.7178H88.1663C88.1333 32.7178 88.1112 32.7288 88.0782 32.7509C87.5051 32.9602 83.9347 33.7867 83.3287 33.919C83.2185 33.941 83.1523 34.0512 83.1744 34.1614C83.1964 34.2606 83.2956 34.3267 83.3948 34.3157C83.4058 34.3157 86.4032 33.6545 86.4032 33.6545C87.0313 33.5112 87.6594 33.3349 88.2545 33.1145C88.4418 33.0925 88.6402 33.0704 88.8385 33.0484C88.8606 33.3459 89.0699 33.6655 89.2132 33.8639C89.5878 34.3708 90.2711 34.6132 91.2188 34.5912C91.351 34.5912 91.4943 34.5801 91.6265 34.5801C92.1665 34.5581 92.6844 34.5361 93.1472 34.7234C93.3125 34.7895 93.4778 34.8887 93.6872 35.0319C93.7313 35.065 93.7753 35.076 93.8304 35.065C93.8745 35.065 93.9186 35.043 93.9517 35.0099C94.0178 34.9328 94.0288 34.8226 93.9737 34.7454C93.1472 33.6324 91.8799 32.8721 90.5135 32.6737C90.1609 32.6186 89.8193 32.6076 89.4666 32.6186C90.0507 32.3431 90.6237 32.0346 91.1637 31.693C91.329 31.6269 91.4832 31.5718 91.6485 31.5277C91.6596 31.6599 91.7147 31.8032 91.8028 31.9134C91.9351 32.0676 92.1114 32.1668 92.2767 32.2329C92.9158 32.4974 93.61 32.5745 94.2822 32.6517C94.7781 32.7068 95.2961 32.7619 95.7699 32.9051C95.7919 32.9162 95.825 32.9162 95.847 32.9162C95.9132 32.9051 95.9683 32.8721 96.0013 32.817C96.0454 32.7398 96.0344 32.6296 95.9683 32.5635C94.8002 31.4505 93.4337 30.9326 92.1444 31.0428C92.1554 31.0318 92.1554 31.0208 92.1665 31.0097C92.5521 30.7232 92.9268 30.4147 93.2795 30.0841C93.3235 30.04 93.3676 29.9959 93.4117 29.9629C93.6431 30.3265 94.0729 30.569 94.6018 30.613C94.7561 30.6241 94.9214 30.6241 95.0757 30.602C95.3401 30.58 95.5936 30.5139 95.847 30.4588L95.9352 30.4367C96.6956 30.2604 97.4669 30.1282 98.2383 30.029C98.3265 30.018 98.4036 29.9519 98.4146 29.8637C98.4257 29.7755 98.3816 29.6874 98.3044 29.6433C97.9738 29.478 97.6102 29.3788 97.3016 29.3017C96.7507 29.1695 96.0234 29.0152 95.2961 29.0152C94.9214 29.0152 94.5688 29.0593 94.2382 29.1474C94.5908 28.7617 94.9324 28.365 95.252 27.9463C95.7368 27.9463 96.2217 27.9242 96.7066 27.8802C97.3016 27.814 97.8967 27.7149 98.4807 27.5716C98.9105 27.4614 99.3623 27.3292 99.748 27.0537C99.8252 26.9986 99.8582 26.8994 99.8252 26.8112C99.7921 26.7231 99.7039 26.668 99.6048 26.69C99.186 26.7561 98.7673 26.7892 98.3485 26.7782C98.1942 26.7782 98.0289 26.7672 97.8747 26.7561C97.5 26.7341 97.1253 26.7231 96.7396 26.7672C96.4311 26.8002 96.1446 26.8884 95.9021 27.0096C96.0895 26.7121 96.2768 26.4035 96.4421 26.0839C96.8058 25.9297 97.1804 25.8305 97.5771 25.7313C97.7755 25.6762 97.9738 25.6321 98.1612 25.577C98.6681 25.4228 99.4064 25.1583 99.8913 24.5742C99.9133 24.5081 100.035 24.3649 99.9904 24.1775Z" fill="white"/>
<path d="M23.5798 9.42204C22.1142 8.95922 20.5604 9.13553 19.2932 9.88487C19.0287 10.0391 18.7862 10.2265 18.5548 10.4248C18.1361 10.7995 17.7724 11.2403 17.4859 11.7472C17.3427 12.0007 17.2104 12.2651 17.1113 12.5296L17.0672 12.6288C17.0451 12.6949 17.0121 12.761 16.99 12.8382C16.9349 12.728 16.8798 12.6178 16.8247 12.5076C16.6705 11.7031 16.7035 10.9758 16.9349 10.3477C17.0011 10.1824 17.0672 10.0171 17.1443 9.86283C17.3206 9.49918 17.53 9.17961 17.7614 8.88208C17.9928 8.59557 18.2793 8.34211 18.665 8.06662C18.7642 8.0005 18.8634 7.92336 18.9736 7.85725C19.216 7.69195 19.4695 7.52666 19.6899 7.30626C19.767 7.22912 19.8221 7.14097 19.8441 7.05281C19.8772 6.95363 19.8662 6.85445 19.8331 6.75528C19.789 6.63406 19.7009 6.52386 19.5797 6.44673C19.4585 6.36959 19.3262 6.36959 19.2821 6.36959C18.9515 6.34755 18.632 6.51284 18.3455 6.67814C18.07 6.83241 17.8165 7.04179 17.5631 7.30626C17.1884 7.70297 16.8137 8.19886 16.4942 8.7278C16.4501 8.80494 16.406 8.88208 16.3619 8.95922C16.0754 9.5102 15.9432 10.1053 15.9652 10.7003C15.9652 10.7444 15.9762 10.7775 15.9762 10.8215C15.7448 10.3587 15.5024 9.88487 15.2489 9.38899C15.2489 9.34491 15.2379 9.30083 15.2269 9.26777C15.2159 9.24573 15.2159 9.22369 15.2048 9.20165C15.0065 8.35313 15.0616 7.79113 15.2159 7.15199C15.3922 6.45774 15.7228 5.89574 16.0093 5.43291C16.406 4.81581 16.9129 4.15463 17.6292 3.92321C18.1691 3.7469 18.8193 3.81302 19.4695 3.87913C19.745 3.91219 20.0425 3.93423 20.318 3.94525C20.6045 3.95627 20.6816 3.81302 20.7147 3.72486C20.7147 3.70282 20.7257 3.6918 20.7257 3.66976C20.7588 3.38325 20.4612 3.16285 20.2959 3.09674C18.5328 2.31434 16.7696 2.57881 15.7007 3.81302C14.8412 4.79377 14.4775 6.36959 14.6428 8.09968C14.6208 8.0556 14.5988 8.0005 14.5767 7.93438C14.5547 7.87929 14.5326 7.83521 14.5216 7.81317C14.3563 7.30626 14.3012 6.45774 14.3453 5.9288C14.4224 4.94805 14.5106 4.34196 14.7861 3.5265C15.0726 2.67799 15.2159 2.39148 15.4363 1.96171L15.5575 1.71927C15.7669 1.30052 15.5795 1.11319 15.5134 1.06911C15.282 0.903816 14.8963 1.03605 14.4775 1.4548C13.2984 2.61187 13.1772 4.13259 13.2213 4.92601C13.2433 5.55413 13.3425 6.09409 13.4858 6.601C13.2213 6.34755 12.9127 6.14919 12.5711 5.99492C12.3397 5.7635 12.1083 5.54311 11.8879 5.34476C10.6537 4.23177 9.46358 3.44937 8.22938 2.94246C7.89879 2.81022 7.458 2.65595 7.02823 2.71105C6.90701 2.73309 6.80784 2.82124 6.75274 2.95348C6.71968 3.10776 6.77478 3.23999 6.88497 3.32815C7.66737 3.90117 8.51589 4.40808 9.34237 4.89295L9.39746 4.92601C9.83825 5.17946 10.2901 5.45495 10.7308 5.73044C10.3782 5.75248 10.0256 5.84064 9.68398 5.96186C8.68118 6.33653 7.77757 7.07485 7.22658 7.98948C7.12741 8.14376 7.12741 8.33109 7.20454 8.49639C7.2927 8.67271 7.48004 8.73882 7.64533 8.73882C7.66737 8.73882 7.68941 8.73882 7.70043 8.73882C7.93184 8.71678 8.10816 8.58455 8.25142 8.48537C8.32855 8.43027 8.40569 8.37517 8.48283 8.32007C8.1853 8.7278 7.90981 9.16859 7.65635 9.60938C7.61227 9.6755 7.62329 9.77468 7.67839 9.82977C7.84369 9.99507 8.06408 10.0832 8.27346 10.0832C8.31753 10.0832 8.37263 10.0832 8.41671 10.0722C8.63711 10.0281 8.8024 9.89589 8.95668 9.76365C9.21013 9.54326 9.45256 9.30083 9.68398 9.05839C9.77213 8.97024 9.86029 8.88208 9.94845 8.79392C9.94845 8.82698 9.92641 8.86004 9.93743 8.8931C9.99253 9.06941 10.1799 9.12451 10.268 9.15757C10.8961 9.35593 11.5243 9.5653 12.1304 9.80773C11.4581 9.96201 10.8741 10.3697 10.4884 10.9648C10.2019 11.4166 9.95947 11.9566 9.78315 12.5957C9.7501 12.7059 9.72806 12.8271 9.70602 12.9373C8.97872 13.0145 8.22938 13.1247 7.44698 13.312C3.52396 14.5462 1.13269 17.213 0.262134 21.3233C-0.189674 23.8138 -0.0574376 26.1389 0.658843 28.3208C1.15473 30.0068 2.2567 31.781 4.26228 33.2466C7.55717 35.671 11.4361 35.9685 15.2269 34.3266C18.1581 33.0593 19.9654 30.7892 20.8029 27.9131C21.9158 23.8909 21.3869 20.2324 19.227 16.9485C19.0287 16.695 18.8083 16.4526 18.5989 16.2212C18.1691 15.3066 17.7173 14.3589 17.2325 13.3671C17.2435 13.3451 17.2545 13.334 17.2655 13.312C17.2986 13.1357 17.4418 12.9924 17.5741 12.8602L17.6402 12.8161C17.8275 12.6288 18.0259 12.4414 18.2353 12.2651C18.9515 11.6811 19.778 11.2072 20.7147 10.8546C21.5963 10.524 22.544 10.3146 23.5468 10.2155C23.8773 10.1824 23.9765 10.0281 23.9875 9.89589C24.0206 9.69754 23.8663 9.5102 23.5798 9.42204ZM10.6207 8.17682C11.2818 7.65889 11.9651 7.48258 12.6373 7.64787C12.9458 7.72501 13.5409 7.90133 14.0257 8.276C14.0919 8.32007 14.147 8.37517 14.2021 8.41925L14.2351 8.44129C14.3123 8.50741 14.3784 8.56251 14.4335 8.59557C14.5877 8.8931 14.731 9.17961 14.8853 9.46612C14.8963 9.47714 14.8963 9.49918 14.9073 9.5102C14.9845 9.65346 15.0506 9.79671 15.1277 9.93997C14.8963 9.71958 14.6428 9.52122 14.3453 9.34491C13.596 8.8931 12.7475 8.62863 11.943 8.41925C11.6565 8.34211 11.37 8.26498 11.0725 8.25396C10.83 8.24294 10.6096 8.28701 10.4113 8.36415C10.4774 8.30905 10.5435 8.24294 10.6207 8.17682ZM11.8549 11.8464C12.3177 11.0199 13.2544 10.7113 14.2461 11.0419C14.2792 11.075 14.3123 11.097 14.3453 11.1191C14.4555 11.2183 14.5767 11.3395 14.709 11.4717C14.5877 11.4827 14.4775 11.4937 14.3784 11.5048C14.3233 11.5158 14.2682 11.5158 14.2131 11.5268C13.6731 11.615 13.2544 11.7692 12.9458 12.0117C12.8687 12.0668 12.7805 12.1439 12.7475 12.2541C12.7144 12.3533 12.7254 12.4635 12.7915 12.5516C12.8577 12.6288 12.9568 12.6729 13.056 12.6729C13.067 12.6729 13.078 12.6729 13.0891 12.6729C13.1662 12.6618 13.2433 12.6288 13.2984 12.6067C13.3205 12.5957 13.3315 12.5847 13.3535 12.5847C13.4197 12.5627 13.4968 12.5296 13.5629 12.5076C13.9706 12.3863 14.4335 12.3312 14.9734 12.3312C15.1938 12.3312 15.4363 12.3533 15.6897 12.3753C15.7007 12.3753 15.7228 12.3753 15.7448 12.3863C16.0203 12.6067 16.2958 12.8051 16.5713 12.9373C16.5933 12.9483 16.6264 12.9594 16.6484 12.9594C16.6594 12.9594 16.6594 12.9483 16.6705 12.9483C17.1113 13.8299 17.519 14.6674 17.9047 15.4829C16.9129 14.6013 15.8109 13.9401 14.5988 13.5104C13.629 13.1467 12.5932 12.9373 11.4912 12.8822C11.5573 12.5516 11.6785 12.1659 11.8549 11.8464ZM16.968 25.3565C16.9019 27.6156 16.5162 29.6322 15.7999 31.3953C14.7751 33.3899 13.2984 34.4368 11.359 34.5359C7.458 34.7784 5.23202 32.6957 4.70307 28.2768C4.06393 23.7587 4.33942 19.9899 5.54057 16.9705C6.35603 15.1413 7.70043 14.0393 9.55174 13.6316C9.54072 13.6646 9.54072 13.6977 9.5297 13.7307C9.46358 14.0062 9.39746 14.3148 9.4746 14.6233C9.54072 14.8878 9.70602 14.9539 9.79417 14.976C9.82723 14.987 9.86029 14.987 9.89335 14.987C10.268 14.987 10.7088 14.5572 10.7639 14.4911C10.9843 14.2156 11.1386 13.874 11.2598 13.5214C13.8825 13.7087 15.5795 15.2845 16.3619 18.2709C16.8909 20.4307 17.1002 22.7889 16.968 25.3565Z" fill="white"/>
<path d="M10.797 21.6319C10.8521 21.5878 11.0174 21.5107 11.2929 21.4115C11.5684 21.3123 11.91 21.2021 12.3288 21.0919C12.7475 20.9817 19.3263 15.6482 27.3045 13.1137C31.5912 11.7582 36.4288 11.5819 38.787 11.5378C39.4703 11.5378 40.0543 11.5378 40.5502 11.5489C41.0461 11.5599 41.4979 11.5709 41.9056 11.604C42.3134 11.637 42.688 11.6811 43.0296 11.7472C43.3712 11.8133 43.7239 11.8905 44.0875 11.9896C45.4209 12.3643 46.3025 12.9153 46.7212 13.6316C47.14 14.3479 47.1179 15.2625 46.6441 16.3865C46.5119 16.7171 46.3576 17.0367 46.1923 17.3342C46.016 17.6317 45.7956 17.9623 45.5201 18.326C45.2446 18.6896 44.914 19.0974 44.5173 19.5602C44.1206 20.012 43.6247 20.574 43.0186 21.2242C42.5448 21.7421 42.137 22.1939 41.7844 22.6016C41.4318 22.9983 41.2224 23.2297 41.1783 23.2738C40.3629 24.1664 39.5474 25.048 38.7209 25.9075C37.8945 26.7671 37.068 27.6486 36.2305 28.5192C36.1203 28.6074 36.0101 28.7286 35.8778 28.8718C35.7456 29.0151 35.6244 29.1363 35.5252 29.2465C34.2359 30.5468 33.2111 31.6708 32.4397 32.5965C31.6683 33.5221 31.0402 34.3486 30.5774 35.0759C29.9492 36.1118 29.6407 36.9382 29.6517 37.5664C29.6627 38.1945 30.0154 38.5912 30.6876 38.7565C30.8418 38.8006 30.9961 38.8336 31.1394 38.8336C31.2826 38.8447 31.5361 38.8336 31.9108 38.8226C32.5168 38.7896 33.1119 38.7234 33.6959 38.6243C34.28 38.5251 35.0073 38.3488 35.8778 38.0843C37.1341 37.7096 38.4344 37.2468 39.7898 36.7179C41.1342 36.1889 42.6329 35.5277 44.2638 34.7343C45.9058 33.9409 47.724 33.0152 49.7406 31.9353C51.7572 30.8554 54.0604 29.5881 56.661 28.1335C58.2809 27.2079 59.46 26.5246 60.1983 26.0838C60.9256 25.6431 61.3774 25.3455 61.5317 25.1912C61.5868 25.1141 61.6639 25.026 61.7852 24.9158C61.9064 24.8056 62.0056 24.7174 62.0827 24.6403C62.1598 24.5631 62.3251 24.4089 62.5786 24.1885C62.832 23.957 63.1185 23.6926 63.4381 23.395C63.7687 23.0865 64.0993 22.789 64.4409 22.4694C64.7825 22.1608 65.069 21.8853 65.3004 21.6649C65.62 21.3564 66.0498 20.9707 66.6008 20.5079C67.1518 20.034 67.7468 19.5712 68.386 19.0974C69.0251 18.6235 69.6642 18.1937 70.3144 17.797C70.9536 17.4003 71.5266 17.1358 72.0225 17.0036C72.2098 16.9595 72.3751 16.9155 72.5294 16.8824C72.6836 16.8493 72.8049 16.8273 72.882 16.8273C73.0142 16.8273 73.1465 16.8604 73.2897 16.9375C73.433 17.0146 73.5101 17.0918 73.5101 17.1689C73.5101 17.3232 73.3779 17.5546 73.1024 17.8742C72.8269 18.1937 72.4963 18.5243 72.0996 18.877C71.4494 19.4279 70.4356 20.1552 69.0692 21.0699C67.7027 21.9845 66.149 22.9873 64.3968 24.0893L62.8982 25.026L61.7631 26.2491C61.3444 26.723 60.9587 27.1528 60.6281 27.5384C60.2865 27.9241 59.9559 28.3098 59.6253 28.6845C59.2947 29.0592 58.9641 29.4559 58.6225 29.8526C58.2809 30.2603 57.9062 30.7121 57.4875 31.23C57.0687 31.759 56.7051 32.2218 56.3855 32.6185C56.0659 33.0152 55.8896 33.2356 55.8345 33.3017C55.7794 33.3789 55.6913 33.5001 55.559 33.6544C55.4268 33.8087 55.2946 33.985 55.1623 34.1503C55.0301 34.3266 54.8758 34.547 54.6885 34.8225C54.6664 34.8555 54.6334 34.8886 54.6113 34.9106C54.5562 34.9988 54.5011 35.0759 54.4571 35.142C54.3799 35.2192 54.2918 35.3294 54.2036 35.4616C54.1155 35.5938 54.0383 35.7261 53.9832 35.8473C53.7187 36.3762 53.5204 36.7179 53.3992 36.8832C53.2669 37.0374 53.1016 37.1586 52.8923 37.2358C52.6609 37.2799 52.4625 37.3019 52.3082 37.2799C52.0988 37.2468 51.9005 37.1917 51.7132 37.0925C51.5258 37.0044 51.4156 36.9052 51.3605 36.795C51.3385 36.7068 51.3715 36.5636 51.4817 36.3762C51.5809 36.1889 51.7462 36.0236 51.9556 35.8914C52.0327 35.8253 52.1209 35.7481 52.2311 35.6379C52.3413 35.5277 52.4405 35.4286 52.5507 35.3294C52.6498 35.2302 53.0796 34.7563 53.3441 34.4258C53.6085 34.0952 53.8951 33.6764 54.3138 33.1916C54.7326 32.6957 55.1954 32.1667 55.6913 31.5827C56.1872 31.0097 56.672 30.4587 57.1459 29.9297C57.6197 29.4118 58.0385 28.9379 58.4021 28.5192C58.7658 28.1004 59.0302 27.8139 59.1845 27.6707C59.3388 27.5164 59.471 27.3952 59.5592 27.296C59.6473 27.1968 59.7245 27.1087 59.7796 27.0315C59.8567 26.9544 59.9118 26.8993 59.9339 26.8442C59.5371 27.0536 59.1845 27.2519 58.8539 27.4393C58.5233 27.6266 58.1376 27.836 57.6968 28.0894C57.2561 28.3429 56.7822 28.6074 56.2863 28.8939C54.6885 29.8085 53.3331 30.5799 52.2201 31.219C51.1071 31.8582 50.1373 32.3981 49.3109 32.861C48.4844 33.3128 47.7571 33.7095 47.129 34.029C46.5008 34.3596 45.8727 34.6572 45.2446 34.9547C44.5393 35.3073 43.6247 35.7151 42.4897 36.1999C41.3657 36.6738 40.1755 37.1366 38.9193 37.5774C37.663 38.0182 36.3958 38.3928 35.1285 38.7014C33.8612 39.01 32.7262 39.1642 31.7344 39.1642C30.5553 39.1642 29.6958 38.8557 29.1448 38.2496C28.8583 37.941 28.7371 37.5113 28.7922 36.9272C28.8473 36.3211 29.1338 35.6049 29.6517 34.7674C30.1807 33.9299 30.9851 32.905 32.0871 31.6708C32.2964 31.4394 32.5389 31.1749 32.8144 30.8664C33.0899 30.5578 33.3654 30.2603 33.6409 29.9628C33.9163 29.6763 34.8971 28.6955 35.0954 28.4972C35.2938 28.2988 35.5362 28.0454 35.8448 27.7478C36.1423 27.4503 36.4619 27.1307 36.7925 26.7781C37.1231 26.4255 37.4316 26.1059 37.7181 25.8194C37.8173 25.6982 37.9385 25.5659 38.0708 25.4337C38.203 25.3014 38.3022 25.1912 38.3903 25.1141C38.5777 24.9488 38.7981 24.7174 39.0625 24.4309C39.327 24.1444 39.5584 23.9019 39.7678 23.7036C39.8229 23.6265 39.9111 23.5273 40.0433 23.384C40.1755 23.2518 40.3078 23.1085 40.44 22.9763C40.7596 22.6457 41.0902 22.271 41.4648 21.8523C41.8285 21.4335 42.1811 21.0258 42.5227 20.6071C42.8643 20.1993 43.1729 19.8136 43.4704 19.45C43.7569 19.0863 43.9773 18.7778 44.1426 18.5354C45.4209 16.5738 45.9939 15.1854 45.8286 14.3699C45.7295 13.9181 45.498 13.5544 45.1454 13.279C44.7928 13.0035 44.341 12.7941 43.812 12.6288C43.2721 12.4745 42.688 12.3643 42.0489 12.2982C41.4097 12.2431 40.418 12.1329 39.7568 12.1219C39.0515 12.1109 32.5719 11.9676 27.5139 13.4663C22.6322 14.9099 16.4611 18.4141 12.8577 21.5988C12.6593 21.7751 12.1965 22.2049 12.0863 22.249C11.9651 22.2931 11.8549 22.3151 11.7557 22.3151C11.3921 22.3151 11.1056 22.238 10.9072 22.0727C10.6538 21.9625 10.6427 21.7972 10.797 21.6319ZM66.5677 22.26C67.0636 21.9404 67.5705 21.6098 68.0774 21.2572C68.5843 20.9046 69.0692 20.563 69.532 20.2324C69.9948 19.9018 70.4026 19.5822 70.7662 19.2737C71.1299 18.9651 71.4164 18.7117 71.6258 18.5023C71.7359 18.3921 71.8461 18.2819 71.9563 18.1497C72.0776 18.0174 72.1767 17.9072 72.2759 17.797C72.3641 17.6868 72.4632 17.5656 72.5734 17.4113C72.5514 17.4003 72.4302 17.4334 72.2208 17.5326C72.0114 17.6317 71.769 17.764 71.4935 17.9182C71.218 18.0725 70.9315 18.2488 70.645 18.4141C70.3585 18.5904 70.1161 18.7447 69.9397 18.877C69.1794 19.45 68.4631 20.012 67.8019 20.563C67.1297 21.114 66.5347 21.5988 66.0167 22.0396C65.8294 22.1939 65.6531 22.3592 65.4657 22.5245C65.2784 22.7008 65.1131 22.8661 64.9588 23.0093C64.8046 23.1636 64.6282 23.3399 64.4519 23.5273C64.4519 23.5824 65.1572 23.1526 66.5677 22.26Z" fill="white"/>
</svg>
